<svg height="500" viewBox="0 0 132.29166 132.29166" width="500" xmlns="http://www.w3.org/2000/svg"><g transform="matrix(.87842745 0 0 .87842745 -15.085459 -27.412828)"><g stroke-width="3"><path d="m31.965984 73.2381 60.764168 48.09297v60.47619l-60.764168-48.09297z" fill="#ff6b00"/><path d="m92.894957 31.206707 53.150113 42.308629-35.93085 28.236694-17.168355-13.489976z" fill="#ff6b00"/><path d="m92.730152 121.33107 60.149118-46.893752.10181 60.068922-60.250928 47.30102z"/></g><path d="m92.894956 31.206707.050909 57.055347-16.965707 13.644286-36.343537-28.556034z"/></g><path d="m96.667704 66.011702s-1.838224 3.753134-4.068384 9.286359c-2.478343-2.904183-4.505147-4.475821-4.505147-4.475821s-4.639669 4.926538-4.639669 4.926538.720205 2.930288 2.323765 6.75418c-5.057695 1.505755-8.626623 3.03607-8.626623 3.03607s-1.520214 5.820112-1.520214 5.820112 2.705995.189943 6.9592-.125176c-4.145646 4.714758-6.743838 8.111891-6.743838 8.111891s2.377446 3.325845 2.377446 3.325845 3.135153-2.41046 7.626412-6.401202c-1.294258 5.381032-1.855626 9.001952-1.855626 9.001952s4.249964-.49135 4.249964-.49135 2.215719-4.38812 4.733178-10.432144c2.673336 3.149531 4.925624 4.958345 4.925624 4.958345s4.281328-4.135443 4.281328-4.135443-.71943-3.275313-2.272479-7.341666c4.911969-1.511317 8.425719-2.97904 8.425719-2.97904s1.69879-5.248902 1.69879-5.248902-3.06308-.296856-7.58961-.07157c4.39619-5.001376 7.2741-8.718401 7.2741-8.718401s-1.78324-3.296169-1.78324-3.296169-3.5094 2.626857-8.267669 6.740713c1.382929-5.579551 1.922589-9.262665 1.922589-9.262665s-4.925616 1.01754-4.925616 1.01754zm-3.833106 10.141221c4.989679-2.749528 9.034452-.933563 9.034422 4.056144.00003 4.989668-4.044743 11.263786-9.034422 14.013896-4.989925 2.749996-9.035075.934146-9.035031-4.055805-.000044-4.989898 4.045106-11.264325 9.035031-14.014235zm-.000308-4.580391c-7.519699 4.144046-13.615643 13.599471-13.615572 21.11913-.000071 7.519748 6.095864 10.256208 13.615572 6.112019 7.5197-4.144043 13.61565-13.599466 13.61558-21.119135.00006-7.519733-6.09588-10.2562-13.61558-6.112014zm0 4.58056c4.989916-2.749993 9.03506-.934134 9.03503 4.055802.00004 4.9899-4.045105 11.264328-9.03503 14.014236-4.989924 2.749996-9.035065.934129-9.035021-4.055814-.000035-4.989896 4.045105-11.264319 9.035021-14.014224z" fill="#ff6b00" stroke-width=".878427"/></svg>