<svg height="150.60056mm" viewBox="0 0 121.0151 150.60056" width="121.0151mm" xmlns="http://www.w3.org/2000/svg"><g transform="translate(-31.965984 -31.206707)"><g stroke-width="3"><path d="m31.965984 73.2381 60.764168 48.09297v60.47619l-60.764168-48.09297z" fill="#ff6b00"/><path d="m92.894957 31.206707 53.150113 42.308629-35.93085 28.236694-17.168355-13.489976z" fill="#ff6b00"/><path d="m92.730152 121.33107 60.149118-46.893752.10181 60.068922-60.250928 47.30102z"/></g><path d="m92.894956 31.206707.050909 57.055347-16.965707 13.644286-36.343537-28.556034z"/></g><path d="m95.253586 75.147585s-2.09263 4.272561-4.63144 10.571572c-2.82134-3.306116-5.12865-5.095265-5.12865-5.095265s-5.28179 5.608361-5.28179 5.608361.81988 3.335834 2.64537 7.688944c-5.75767 1.714149-9.82053 3.456256-9.82053 3.456256s-1.730608 6.625607-1.730608 6.625607 3.080499.21623 7.922338-.1425c-4.719394 5.36727-7.677171 9.23456-7.677171 9.23456s2.70648 3.78613 2.70648 3.78613 3.569051-2.74406 8.681891-7.28711c-1.47338 6.12575-2.11244 10.2478-2.11244 10.2478s4.83815-.55936 4.83815-.55936 2.52237-4.99542 5.38824-11.87592c3.04332 3.58542 5.60732 5.64457 5.60732 5.64457s4.873854-4.70778 4.873854-4.70778-.819-3.72861-2.586984-8.35774c5.591774-1.720481 9.591824-3.391334 9.591824-3.391334s1.93389-5.975339 1.93389-5.975339-3.487-.33794-8.63999-.08147c5.00461-5.693556 8.28082-9.92501 8.28082-9.92501s-2.03004-3.752352-2.03004-3.752352-3.99509 2.990409-9.411894 7.673614c1.574324-6.35175 2.188674-10.544599 2.188674-10.544599s-5.607314 1.158366-5.607314 1.158366zm-4.3636 11.544745c5.68024-3.130057 10.284804-1.062766 10.284764 4.617506.00004 5.680228-4.604524 12.822674-10.284764 15.953394-5.68052 3.13059-10.28551 1.06343-10.28546-4.61712-.00005-5.680493 4.60494-12.823288 10.28546-15.95378zm-.00035-5.214307c-8.56041 4.717573-15.50002 15.48161-15.49994 24.041977-.00008 8.56046 6.93952 11.67565 15.49994 6.95791 8.56041-4.71757 15.500024-15.481607 15.499944-24.041983.00007-8.560449-6.939534-11.675637-15.499944-6.957904zm0 5.2145c5.68051-3.130586 10.285494-1.063416 10.285454 4.617116.00005 5.680492-4.604934 12.823291-10.285454 15.953781-5.68052 3.13059-10.2855 1.06341-10.28545-4.61713-.00004-5.680491 4.60494-12.823281 10.28545-15.953767z" fill="#ff6b00"/></svg>